<svg width="40" height="40" viewBox="0 0 40 40" fill="none" xmlns="http://www.w3.org/2000/svg">
<path d="M21.9745 6.70324C21.6525 6.68036 21.3032 6.66669 20.9811 6.66669H20.7226L20.3325 7.10077V8.4076L21.9745 6.70324Z" fill="white"/>
<path d="M24.5009 7.09156C24.1426 7.00929 23.8069 6.9362 23.4441 6.87677L20.3325 10.0388V11.3456L24.5009 7.09156Z" fill="white"/>
<path d="M25.7163 7.42975L20.6499 12.5337H20.8268C21.0355 12.5337 21.2486 12.5063 21.4709 12.5063C21.6931 12.5063 21.802 12.5063 21.9698 12.5063L26.687 7.75873C26.3741 7.6445 26.052 7.53027 25.7163 7.42975Z" fill="white"/>
<path d="M20.836 16.6918C20.6717 16.6202 20.5036 16.5577 20.3325 16.5045V17.2127L20.836 16.6918Z" fill="white"/>
<path d="M28.6783 8.68181C28.4152 8.52645 28.1295 8.38022 27.821 8.22485L23.3442 12.7348C23.6738 12.8275 23.9978 12.9389 24.3149 13.0684L28.6783 8.68181Z" fill="white"/>
<path d="M22.9497 17.4321L22.0062 17.1031L20.3325 18.8166V20.1235L22.9497 17.4321Z" fill="white"/>
<path d="M25.3945 13.6076C25.6712 13.7675 25.9388 13.9366 26.1928 14.1102L26.8596 13.4385L29.259 9.71448L25.3945 13.6076Z" fill="white"/>
<path d="M24.129 17.8615L20.3325 21.7455V22.6593C20.3325 22.6913 20.4641 22.7279 20.5593 22.7644L25.0542 18.2362C24.7458 18.1265 24.4374 17.9803 24.129 17.8615Z" fill="white"/>
<path d="M26.4647 18.9718L26.4057 18.9353L26.0837 18.7617L21.6387 23.2396H21.6795L21.9335 23.3676L22.0469 23.427L22.3598 23.6097L22.437 23.6646H22.4732L26.9092 19.1957L26.4647 18.9718Z" fill="white"/>
<path d="M21.8838 27.2654C21.3971 27.4299 20.8867 27.5118 20.3733 27.5076L20.3325 27.5761V28.8829L21.8838 27.2654Z" fill="white"/>
<path d="M23.3805 24.6928C23.3825 24.7018 23.3825 24.7112 23.3805 24.7202C23.416 24.8031 23.4448 24.8886 23.4667 24.9761V25.0538C23.489 25.1558 23.4997 25.2601 23.4984 25.3645C23.5031 25.4406 23.5031 25.5169 23.4984 25.593L28.4878 20.5667C28.32 20.3885 28.1476 20.2194 27.9662 20.0595L27.8891 19.9955L27.8165 19.9361L23.2808 24.5055C23.3186 24.5653 23.352 24.6279 23.3805 24.6928Z" fill="white"/>
<path d="M29.7442 22.2893C29.7034 22.198 29.6354 22.1066 29.5855 22.0152C29.5674 21.9852 29.5477 21.9562 29.5265 21.9284C29.4403 21.7639 29.3905 21.604 29.2907 21.4714L20.3325 30.5233V31.8347L29.7442 22.2893Z" fill="white"/>
<path d="M30.2931 24.6059C30.2953 24.5694 30.2953 24.5328 30.2931 24.4963C30.2931 24.3226 30.2522 24.149 30.2205 23.9845L30.1933 23.8154C30.1933 23.7012 30.1479 23.5915 30.1207 23.4819L20.3325 33.3333C20.7871 33.3303 21.2412 33.3043 21.6932 33.2558L30.2931 24.6059Z" fill="white"/>
<path d="M29.8623 27.969C30.0801 27.4118 30.2235 26.8279 30.2887 26.2327L23.6528 32.8949C24.353 32.7124 25.0348 32.4645 25.6894 32.1544L29.8623 27.969Z" fill="white"/>
<path d="M20.2735 27.5303C17.7224 27.5441 15.2502 26.6399 13.302 24.9806L10 29.9018C12.9654 32.0959 16.54 33.2963 20.2191 33.3333V27.5257L20.2735 27.5303Z" fill="white"/>
<path d="M20.2191 16.5045C18.9173 15.9928 18.0193 15.4353 18.0193 14.5397C18.0193 13.5299 18.9264 12.8628 20.2191 12.6023V6.70326C20.464 6.70326 20.709 6.68042 20.9539 6.68042C15.9237 6.68042 11.2065 9.74188 11.2065 14.6494C11.2065 20.2743 16.9443 21.4166 20.5865 22.8057L20.2191 22.6686V16.5045Z" fill="white"/>
</svg>
