<svg width="294" height="58" viewBox="0 0 294 58" fill="none" xmlns="http://www.w3.org/2000/svg">
<path d="M13.7173 13.1421C13.3521 13.1161 12.9559 13.1005 12.5907 13.1005H12.2975L11.855 13.5947V15.0824L13.7173 13.1421Z" fill="#6C69FF"/>
<path d="M16.5827 13.5842C16.1763 13.4906 15.7956 13.4074 15.3841 13.3397L11.855 16.9395V18.4272L16.5827 13.5842Z" fill="#6C69FF"/>
<path d="M17.9614 13.9692L12.2151 19.7798H12.4158C12.6524 19.7798 12.8942 19.7485 13.1463 19.7485C13.3983 19.7485 13.5218 19.7485 13.7122 19.7485L19.0623 14.3438C18.7073 14.2137 18.3421 14.0837 17.9614 13.9692Z" fill="#6C69FF"/>
<path d="M12.4261 24.5135C12.2397 24.432 12.0491 24.3607 11.855 24.3002V25.1065L12.4261 24.5135Z" fill="#6C69FF"/>
<path d="M21.3206 15.3947C21.0223 15.2178 20.6982 15.0513 20.3483 14.8745L15.2709 20.0088C15.6446 20.1142 16.0121 20.241 16.3717 20.3885L21.3206 15.3947Z" fill="#6C69FF"/>
<path d="M14.8234 25.3562L13.7533 24.9816L11.855 26.9324V28.4201L14.8234 25.3562Z" fill="#6C69FF"/>
<path d="M17.5961 21.0023C17.9099 21.1843 18.2134 21.3768 18.5015 21.5745L19.2578 20.8098L21.9791 16.5703L17.5961 21.0023Z" fill="#6C69FF"/>
<path d="M16.1609 25.8451L11.855 30.2667V31.3071C11.855 31.3435 12.0042 31.3851 12.1123 31.4267L17.2103 26.2716C16.8605 26.1468 16.5107 25.9803 16.1609 25.8451Z" fill="#6C69FF"/>
<path d="M18.8102 27.1091L18.7433 27.0675L18.3781 26.8698L13.3366 31.9677H13.3829L13.671 32.1133L13.7996 32.1809L14.1545 32.389L14.242 32.4515H14.2831L19.3143 27.364L18.8102 27.1091Z" fill="#6C69FF"/>
<path d="M13.6144 36.5507C13.0625 36.7381 12.4835 36.8312 11.9013 36.8264L11.855 36.9045V38.3922L13.6144 36.5507Z" fill="#6C69FF"/>
<path d="M15.312 33.622C15.3143 33.6323 15.3143 33.6429 15.312 33.6532C15.3523 33.7475 15.3849 33.8449 15.4098 33.9445V34.033C15.435 34.1491 15.4471 34.2678 15.4457 34.3867C15.451 34.4733 15.451 34.5602 15.4457 34.6468L21.1046 28.9247C20.9142 28.7218 20.7187 28.5294 20.513 28.3473L20.4255 28.2745L20.3432 28.2068L15.1989 33.4088C15.2418 33.4769 15.2796 33.5482 15.312 33.622Z" fill="#6C69FF"/>
<path d="M22.5296 30.8858C22.4833 30.7818 22.4061 30.6778 22.3495 30.5738C22.329 30.5396 22.3067 30.5066 22.2826 30.4749C22.1849 30.2876 22.1283 30.1056 22.0152 29.9547L11.855 40.2596V41.7526L22.5296 30.8858Z" fill="#6C69FF"/>
<path d="M23.152 33.5231C23.1546 33.4816 23.1546 33.4399 23.152 33.3983C23.152 33.2006 23.1057 33.0029 23.0697 32.8156L23.0389 32.6232C23.0389 32.4931 22.9874 32.3683 22.9566 32.2435L11.855 43.4587C12.3706 43.4552 12.8857 43.4256 13.3983 43.3704L23.152 33.5231Z" fill="#6C69FF"/>
<path d="M22.6633 37.3518C22.9103 36.7175 23.0729 36.0527 23.1469 35.3751L15.6207 42.9596C16.4148 42.7518 17.1881 42.4696 17.9305 42.1165L22.6633 37.3518Z" fill="#6C69FF"/>
<path d="M165.321 16.6378L167.497 14.4374C166.71 14.7882 165.977 15.2525 165.321 15.8159V16.6378Z" fill="#6C69FF"/>
<path d="M171.978 13.1422C171.407 13.1943 170.839 13.2864 170.28 13.4178L165.342 18.4637V19.9514L171.978 13.1422Z" fill="#6C69FF"/>
<path d="M175.157 13.2774C174.733 13.2052 174.306 13.1565 173.876 13.1317L165.321 21.8085V23.3015L175.157 13.2774Z" fill="#6C69FF"/>
<path d="M177.668 13.9796C177.302 13.8392 176.937 13.7143 176.562 13.6051L169.437 20.8098C170.054 20.5894 170.694 20.4427 171.345 20.3728L177.668 13.9796Z" fill="#6C69FF"/>
<path d="M179.87 15.0773C179.561 14.8848 179.247 14.7079 178.923 14.5571L173.141 20.3936C173.549 20.4453 173.952 20.5341 174.345 20.6589L179.87 15.0773Z" fill="#6C69FF"/>
<path d="M181.747 16.5076C181.49 16.2683 181.233 16.0394 180.95 15.8262L175.61 21.231C175.909 21.4186 176.188 21.6365 176.443 21.8812L181.747 16.5076Z" fill="#6C69FF"/>
<path d="M183.327 18.2401C183.214 18.0892 183.095 17.9436 182.971 17.7979C182.848 17.6523 182.761 17.5482 182.652 17.4286L177.251 22.8958C177.441 23.2156 177.6 23.5536 177.725 23.905L183.327 18.2401Z" fill="#6C69FF"/>
<path d="M184.571 20.3103C184.417 19.9769 184.246 19.6522 184.057 19.3376L178.084 25.3822C178.155 25.8332 178.196 26.2885 178.208 26.7451L184.571 20.3103Z" fill="#6C69FF"/>
<path d="M185.482 22.7864C185.39 22.3859 185.312 21.9957 185.189 21.6316L178.357 28.5762V30.0639L185.482 22.7864Z" fill="#6C69FF"/>
<path d="M185.924 25.6734C185.888 25.2052 185.873 24.7631 185.811 24.3365L178.357 31.9053V33.393L185.924 25.6734Z" fill="#6C69FF"/>
<path d="M185.95 28.9091V28.0144C185.95 27.8167 186.012 27.6242 186.007 27.4318L178.357 35.2346V36.7224L185.95 28.9091Z" fill="#6C69FF"/>
<path d="M185.95 32.2434V30.7557L178.357 38.5691V40.0565L185.95 32.2434Z" fill="#6C69FF"/>
<path d="M185.95 34.0851L178.357 41.8983V42.7361H178.743L185.95 35.5729V34.0851Z" fill="#6C69FF"/>
<path d="M185.95 38.9017V37.4141L180.564 42.7356H182.041L185.95 38.9017Z" fill="#6C69FF"/>
<path d="M185.95 42.2365V40.7435L183.861 42.7356H185.333L185.95 42.2365Z" fill="#6C69FF"/>
<path d="M229.065 14.6038L229.991 13.6675H229.065V14.6038Z" fill="#6C69FF"/>
<path d="M233.283 13.6675H231.812L229.065 16.4453V17.9331L233.283 13.6675Z" fill="#6C69FF"/>
<path d="M236.658 13.7508V13.6675H235.104L229.065 19.7746V21.2675L236.658 13.7508Z" fill="#6C69FF"/>
<path d="M239.323 14.3074C238.363 14.7703 237.467 15.3579 236.658 16.0552V15.5975L229.065 23.109V24.5863L239.323 14.3074Z" fill="#6C69FF"/>
<path d="M243.706 13.1422C243.127 13.184 242.551 13.2639 241.983 13.3814L229.065 26.4382V27.9259L243.706 13.1422Z" fill="#6C69FF"/>
<path d="M246.875 13.2359C246.437 13.163 245.995 13.085 245.553 13.0538L230.547 28.2277H232.018L246.875 13.2359Z" fill="#6C69FF"/>
<path d="M248.351 13.6622L241.334 20.7368C241.935 20.5374 242.556 20.4082 243.186 20.3519L249.452 14.016C249.092 13.8755 248.727 13.7455 248.351 13.6622Z" fill="#6C69FF"/>
<path d="M236.931 26.7764V25.2886L233.839 28.2017H235.31L236.931 26.7764Z" fill="#6C69FF"/>
<path d="M251.644 15.1344C251.34 14.9367 251.026 14.7598 250.707 14.6142L244.956 20.4247C245.358 20.4832 245.754 20.579 246.139 20.7108L251.644 15.1344Z" fill="#6C69FF"/>
<path d="M252.713 15.8888L247.374 21.2884C247.667 21.4764 247.94 21.6961 248.187 21.9438L253.511 16.5754C253.254 16.3362 252.991 16.1073 252.713 15.8888Z" fill="#6C69FF"/>
<path d="M255.075 18.3441C254.946 18.162 254.807 17.9904 254.668 17.8239C254.53 17.6574 254.499 17.6262 254.411 17.5326L248.989 22.9894C249.18 23.3182 249.335 23.6671 249.452 24.0298L255.075 18.3441Z" fill="#6C69FF"/>
<path d="M256.304 20.4249C256.15 20.0868 255.98 19.759 255.79 19.4469L249.792 25.5071C249.853 25.9643 249.891 26.4244 249.905 26.8856L256.304 20.4249Z" fill="#6C69FF"/>
<path d="M257.133 22.8489C257.04 22.4432 256.932 22.0218 256.813 21.6525L250.311 28.2277H251.782L257.133 22.8489Z" fill="#6C69FF"/>
<path d="M257.554 25.7516C257.518 25.2834 257.472 24.8049 257.416 24.3783L253.603 28.2277H255.075L257.554 25.7516Z" fill="#6C69FF"/>
<path d="M257.811 28.0144C257.811 27.8635 257.719 27.6659 257.719 27.4942L256.891 28.2277H257.806L257.811 28.0144Z" fill="#6C69FF"/>
<path d="M68.4532 13.6675H66.9766L64.4613 16.3257V17.8135L68.4532 13.6675Z" fill="#6C69FF"/>
<path d="M71.7455 13.6675H70.2741L64.4613 19.6549V21.1427L71.7455 13.6675Z" fill="#6C69FF"/>
<path d="M74.5338 14.2397C73.5694 14.7657 72.6506 15.373 71.7867 16.0551V15.4725L64.4613 22.9841V24.4718L74.5338 14.2397Z" fill="#6C69FF"/>
<path d="M78.9423 13.1422C78.3829 13.1724 77.8261 13.2419 77.2758 13.3502L64.4613 26.3185V27.8063L78.9423 13.1422Z" fill="#6C69FF"/>
<path d="M64.4613 14.4842L65.1557 13.6675H64.4613V14.4842Z" fill="#6C69FF"/>
<path d="M81.9827 13.2825C81.5549 13.1887 81.1223 13.1193 80.6863 13.0744L65.7112 28.2275H67.1826L81.9827 13.2825Z" fill="#6C69FF"/>
<path d="M72.3268 26.6516V25.1638L69.0087 28.2017H70.48L72.3268 26.6516Z" fill="#6C69FF"/>
<path d="M83.4488 13.7092L76.54 20.7005C77.1308 20.5008 77.7448 20.3802 78.3661 20.3416L84.5397 14.0993C84.1742 13.9588 83.8143 13.8288 83.4488 13.7092Z" fill="#6C69FF"/>
<path d="M86.6694 15.2748C86.371 15.0771 86.0674 14.8846 85.7535 14.7078L80.0947 20.4299C80.4851 20.5039 80.8678 20.6154 81.2371 20.7628L86.6694 15.2748Z" fill="#6C69FF"/>
<path d="M87.7086 16.0657L82.4049 21.4288C82.6857 21.6327 82.9445 21.8664 83.1763 22.1259L88.48 16.7835C88.2332 16.5286 87.9761 16.2945 87.7086 16.0657Z" fill="#6C69FF"/>
<path d="M94.3551 14.1826C93.0381 14.7396 91.8062 15.4841 90.6973 16.3934L83.9171 23.2287C84.0835 23.5792 84.2159 23.945 84.3131 24.3211L94.3551 14.1826Z" fill="#6C69FF"/>
<path d="M84.802 27.3538L98.7585 13.1422C98.1733 13.1792 97.5906 13.2539 97.0145 13.3658L84.6683 25.9128C84.6941 26.2822 84.7865 26.6775 84.7865 27.1145L84.802 27.3538Z" fill="#6C69FF"/>
<path d="M101.794 13.2515C101.358 13.1658 100.919 13.1033 100.477 13.0642L85.4757 28.2277H86.9471L101.794 13.2515Z" fill="#6C69FF"/>
<path d="M92.2714 26.1884C92.2405 25.7098 92.2048 25.2208 92.1532 24.7891L88.768 28.2275H90.2445L92.2714 26.1884Z" fill="#6C69FF"/>
<path d="M103.275 13.6622L96.0372 20.9449C96.6942 20.6608 97.3864 20.4683 98.095 20.3727L104.376 14.0264C104.016 13.8859 103.646 13.7611 103.275 13.6622Z" fill="#6C69FF"/>
<path d="M92.3334 28.0455L92.0659 28.316H92.3334V28.0455Z" fill="#6C69FF"/>
<path d="M105.647 14.5883L99.9159 20.378C100.324 20.4295 100.725 20.5219 101.115 20.6537L106.583 15.1241C106.274 14.9316 105.96 14.7547 105.647 14.5883Z" fill="#6C69FF"/>
<path d="M107.664 15.8731L102.349 21.2467C102.646 21.4345 102.922 21.6542 103.173 21.9021L108.461 16.5545C108.219 16.3205 107.941 16.0916 107.664 15.8731Z" fill="#6C69FF"/>
<path d="M110.019 18.3129C109.891 18.136 109.762 17.9644 109.629 17.7927C109.495 17.621 109.448 17.5846 109.361 17.4806L103.97 22.9374C104.158 23.2666 104.309 23.6155 104.422 23.9778L110.019 18.3129Z" fill="#6C69FF"/>
<path d="M111.229 20.4248C111.079 20.0866 110.909 19.7589 110.714 19.4416L104.731 25.5018C104.78 25.9701 104.806 26.4406 104.808 26.9115L111.229 20.4248Z" fill="#6C69FF"/>
<path d="M112.062 22.8489C111.969 22.4484 111.861 22.0271 111.743 21.6577L105.24 28.2277H106.712L112.062 22.8489Z" fill="#6C69FF"/>
<path d="M112.489 25.7515C112.453 25.2833 112.407 24.8048 112.35 24.373L108.533 28.2276H110.009L112.489 25.7515Z" fill="#6C69FF"/>
<path d="M112.73 27.5982L111.83 28.2016H112.73V27.5982Z" fill="#6C69FF"/>
<path d="M191.897 28.2277C191.897 28.7479 191.897 29.0444 191.948 29.4449L193.152 28.2277H191.897Z" fill="#6C69FF"/>
<path d="M196.445 28.2277H194.973L192.16 31.1304C192.237 31.5413 192.324 31.9158 192.432 32.3112L196.445 28.2277Z" fill="#6C69FF"/>
<path d="M199.624 28.3733V28.2277H198.245L192.88 33.7053C193.013 34.059 193.163 34.4075 193.322 34.7457L199.624 28.3733Z" fill="#6C69FF"/>
<path d="M200.123 31.2553C199.987 30.8775 199.881 30.4896 199.804 30.0952L193.949 36.0306C194.13 36.3427 194.32 36.6444 194.526 36.941L200.123 31.2553Z" fill="#6C69FF"/>
<path d="M201.29 33.4296C201.074 33.1467 200.876 32.8495 200.699 32.54L195.308 37.9656C195.529 38.2361 195.766 38.4856 196.007 38.7513L201.29 33.4296Z" fill="#6C69FF"/>
<path d="M203.003 34.9901C202.711 34.7955 202.434 34.5781 202.175 34.3398L196.938 39.6717C197.201 39.9061 197.453 40.1243 197.751 40.3378L203.003 34.9901Z" fill="#6C69FF"/>
<path d="M205.298 36.0305C204.92 35.9388 204.55 35.8153 204.192 35.6612L198.826 41.0713C199.13 41.2635 199.438 41.4456 199.757 41.5913L205.298 36.0305Z" fill="#6C69FF"/>
<path d="M208.452 36.1605C208.048 36.2194 207.64 36.2489 207.232 36.249H206.898L200.997 42.2104C201.342 42.3613 201.702 42.4965 202.062 42.6161L208.452 36.1605Z" fill="#6C69FF"/>
<path d="M214.841 28.2277C214.841 28.7351 214.798 29.2416 214.712 29.7414L216.209 28.2277H214.841Z" fill="#6C69FF"/>
<path d="M219.501 28.2277H218.03L213.591 32.7741C213.015 33.7086 212.24 34.5012 211.322 35.0942L203.482 43.0113C203.888 43.1052 204.3 43.1417 204.717 43.2039L219.501 28.2277Z" fill="#6C69FF"/>
<path d="M222.568 28.2277H221.323L206.368 43.3809C206.656 43.3809 206.939 43.433 207.232 43.433H207.834L222.562 28.4878C222.562 28.4097 222.568 28.4774 222.568 28.2277Z" fill="#6C69FF"/>
<path d="M222.012 32.4412C222.184 31.8211 222.316 31.1903 222.408 30.553L209.851 43.2509C210.488 43.1492 211.119 43.007 211.739 42.8244L222.012 32.4412Z" fill="#6C69FF"/>
<path d="M220.787 35.5103L214.825 41.5496C217.352 40.1665 219.424 38.0674 220.787 35.5103Z" fill="#6C69FF"/>
<path d="M39.3668 39.9165L26.4701 13.7092H34.9686L43.4004 31.1979" fill="#6C69FF"/>
<path d="M51.1218 13.8756L51.2865 13.7092H51.1992L51.1218 13.8756Z" fill="#6C69FF"/>
<path d="M54.5839 13.6675H53.1074L49.6659 17.1684L48.4878 19.8422L54.5839 13.6675Z" fill="#6C69FF"/>
<path d="M57.8762 13.6675H56.4049L47.0319 23.1662L45.8491 25.84L57.8762 13.6675Z" fill="#6C69FF"/>
<path d="M57.8148 17.1059L59.0441 14.3749L44.3932 29.1848L43.4103 31.4216L43.1996 31.8845L57.8148 17.1059Z" fill="#6C69FF"/>
<path d="M55.0625 23.2181L56.2918 20.4871L41.6255 35.3126L40.3549 38.0852L55.0625 23.2181Z" fill="#6C69FF"/>
<path d="M52.3154 29.3252L53.5447 26.5942L38.7958 41.503L37.5562 44.2495L52.3154 29.3252Z" fill="#6C69FF"/>
<path d="M49.5632 35.4375L50.7924 32.7065L36.0129 47.6517L34.7731 50.3983L49.5632 35.4375Z" fill="#6C69FF"/>
<path d="M46.8161 41.5496L48.0454 38.8187L33.2349 53.7948L31.99 56.5418L46.8161 41.5496Z" fill="#6C69FF"/>
<path d="M44.0639 47.6517L45.2932 44.9152L32.5302 57.8161H34.0066L44.0639 47.6517Z" fill="#6C69FF"/>
<path d="M41.3168 53.7639L42.5409 51.0278L35.8277 57.8161H37.2991L41.3168 53.7639Z" fill="#6C69FF"/>
<path d="M39.7938 57.1348L39.12 57.8161H39.4855L39.7938 57.1348Z" fill="#6C69FF"/>
<path d="M274.063 39.9165L261.161 13.7092H269.664L278.101 31.1979" fill="#6C69FF"/>
<path d="M285.817 13.8756L285.977 13.7092H285.89L285.817 13.8756Z" fill="#6C69FF"/>
<path d="M289.274 13.6675H287.803L284.356 17.1684L283.179 19.8422L289.274 13.6675Z" fill="#6C69FF"/>
<path d="M292.567 13.6675H291.096L281.723 23.1662L280.545 25.84L292.567 13.6675Z" fill="#6C69FF"/>
<path d="M292.505 17.1059L293.734 14.3749L279.083 29.1848L278.101 31.4216L277.89 31.8845L292.505 17.1059Z" fill="#6C69FF"/>
<path d="M289.753 23.2181L290.982 20.4871L276.321 35.3126L275.05 38.0852L289.753 23.2181Z" fill="#6C69FF"/>
<path d="M287.006 29.3252L288.235 26.5942L273.491 41.503L272.247 44.2495L287.006 29.3252Z" fill="#6C69FF"/>
<path d="M284.254 35.4375L285.483 32.7065L270.709 47.6517L269.463 50.3983L284.254 35.4375Z" fill="#6C69FF"/>
<path d="M281.506 41.5496L282.736 38.8187L267.925 53.7948L266.681 56.5418L281.506 41.5496Z" fill="#6C69FF"/>
<path d="M278.754 47.6517L279.983 44.9152L267.226 57.8161H268.697L278.754 47.6517Z" fill="#6C69FF"/>
<path d="M276.007 53.7639L277.237 51.0278L270.518 57.8161H271.989L276.007 53.7639Z" fill="#6C69FF"/>
<path d="M274.484 57.1348L273.81 57.8161H274.181L274.484 57.1348Z" fill="#6C69FF"/>
<path d="M165.147 0.184204H157.42V42.8605H165.147V23.9257V15.8159V0.184204Z" fill="#6C69FF"/>
<path d="M199.629 28.3056C199.665 23.9516 202.741 20.3883 207.232 20.3883C211.723 20.3883 214.8 23.9516 214.836 28.3056H222.552C222.526 19.9045 215.942 13.1733 207.232 13.1733C198.523 13.1733 191.938 19.9358 191.897 28.3056H199.629Z" fill="#6C69FF"/>
<path d="M72.1213 28.316H64.3942V42.8604H72.1213V28.316Z" fill="#6C69FF"/>
<path d="M112.54 28.316H104.813V42.8604H112.54V28.316Z" fill="#6C69FF"/>
<path d="M92.3282 28.316H84.6012V42.8604H92.3282V28.316Z" fill="#6C69FF"/>
<path d="M236.833 28.316H229.106V42.8604H236.833V28.316Z" fill="#6C69FF"/>
<path d="M257.637 28.316H249.91V42.8604H257.637V28.316Z" fill="#6C69FF"/>
<path d="M39.3668 39.9165L26.4701 13.7092H34.9686L43.4004 31.1979" fill="#6C69FF"/>
<path d="M274.063 39.9165L261.161 13.7092H269.664L278.101 31.1979" fill="#6C69FF"/>
<path d="M11.7882 36.8524C8.89476 36.8681 6.09087 35.8387 3.88129 33.9497L0.13623 39.5522C3.49956 42.05 7.55372 43.4165 11.7264 43.4587V36.8472L11.7882 36.8524Z" fill="#6C69FF"/>
<path d="M11.7264 24.3003C10.25 23.7177 9.23145 23.083 9.23145 22.0635C9.23145 20.9139 10.2603 20.1544 11.7264 19.8579V13.1422C12.0043 13.1422 12.2821 13.1162 12.5598 13.1162C6.85474 13.1162 1.50464 16.6015 1.50464 22.1883C1.50464 28.5919 8.01222 29.8923 12.1431 31.4737L11.7264 31.3177V24.3003Z" fill="#6C69FF"/>
<path d="M128.704 15.7432V23.6501C129.59 22.6432 130.67 21.8288 131.877 21.2565C133.084 20.6842 134.393 20.3659 135.726 20.3208C140.243 20.3208 143.154 24.1078 143.154 28.3162C143.154 32.8835 139.882 36.2491 135.546 36.2491C132.922 36.2491 130.288 34.7249 128.704 32.8418V40.8996C130.882 42.6005 133.566 43.5031 136.317 43.4592C138.381 43.4652 140.423 43.0292 142.308 42.1805C144.193 41.3313 145.879 40.0883 147.254 38.5326C149.633 35.6758 150.92 32.0508 150.881 28.3162C150.881 19.7226 144.579 13.111 136.734 13.111C133.845 13.0805 131.026 14.0048 128.704 15.7432Z" fill="#6C69FF"/>
<path d="M121.136 14.8276L121.661 14.2138H121.136V14.8276Z" fill="#6C69FF"/>
<path d="M124.954 14.2138H123.482L121.136 16.6743V18.1621L124.954 14.2138Z" fill="#6C69FF"/>
<path d="M128.251 14.2138H126.775L121.136 20.0035V21.4912L128.251 14.2138Z" fill="#6C69FF"/>
<path d="M128.73 17.0124V15.5194L121.136 23.3327V24.8205L128.73 17.0124Z" fill="#6C69FF"/>
<path d="M128.73 20.3415V18.8538L121.136 26.667V28.1548L128.73 20.3415Z" fill="#6C69FF"/>
<path d="M128.73 23.6707V22.183L121.136 29.9962V31.484L128.73 23.6707Z" fill="#6C69FF"/>
<path d="M128.73 27.0051V25.5121L121.136 33.3254V34.8184L128.73 27.0051Z" fill="#6C69FF"/>
<path d="M128.73 30.3343V29.7621V28.8466L121.136 36.6598V38.1474L128.73 30.3343Z" fill="#6C69FF"/>
<path d="M128.73 33.6637V32.176L121.136 39.9891V41.477L128.73 33.6637Z" fill="#6C69FF"/>
<path d="M128.73 36.9927V35.5049L121.136 43.3182V44.8113L128.73 36.9927Z" fill="#6C69FF"/>
<path d="M128.73 40.3274V38.8344L121.136 46.653V48.1404L128.73 40.3274Z" fill="#6C69FF"/>
<path d="M128.73 43.6565V42.1687L121.136 49.9822V51.4696L128.73 43.6565Z" fill="#6C69FF"/>
<path d="M128.73 46.9856V45.4978L121.136 53.3113V54.7991L128.73 46.9856Z" fill="#6C69FF"/>
<path d="M128.73 48.8322L121.136 56.6456V56.7182H122.283L128.73 50.32V48.8322Z" fill="#6C69FF"/>
<path d="M128.73 53.6496V52.1617L124.105 56.7187H125.576L128.73 53.6496Z" fill="#6C69FF"/>
<path d="M128.73 55.4908L127.397 56.7182H128.73V55.4908Z" fill="#6C69FF"/>
</svg>
