<svg width="16" height="16" viewBox="0 0 16 16" fill="none" xmlns="http://www.w3.org/2000/svg">
<path d="M14.0833 5.43734L10.5417 1.93734L11.7083 0.770671C12.0278 0.451226 12.4203 0.291504 12.8858 0.291504C13.3508 0.291504 13.7431 0.451226 14.0625 0.770671L15.2292 1.93734C15.5486 2.25678 15.7153 2.64234 15.7292 3.094C15.7431 3.54511 15.5903 3.93039 15.2708 4.24984L14.0833 5.43734ZM1.33333 15.4998C1.09722 15.4998 0.899445 15.4198 0.74 15.2598C0.58 15.1004 0.5 14.9026 0.5 14.6665V12.3123C0.5 12.2012 0.520833 12.0937 0.5625 11.9898C0.604167 11.8854 0.666667 11.7915 0.75 11.7082L9.33333 3.12484L12.875 6.6665L4.29167 15.2498C4.20833 15.3332 4.11472 15.3957 4.01083 15.4373C3.90639 15.479 3.79861 15.4998 3.6875 15.4998H1.33333Z" fill="currentColor"/>
</svg>
